/* XPM */
static const char *const question_xpm[] = {
"24 24 3 1",
" 	c None",
".	c #FFFFFF",
"+	c #000000",
"........................",
"........................",
"........+++++...........",
"......+++++++++.........",
".....+++++++++++........",
"....+++.......+++.......",
"...+++.........+++......",
"...+++.........+++......",
"...+++.........+++......",
"...+++.........+++......",
"...+++.........+++......",
"....+++.......+++.......",
"..............+++.......",
"............+++.........",
"...........++++.........",
".........+++++..........",
".........+++............",
".........+++............",
"........................",
"........................",
"........................",
".........+++............",
".........+++............",
".........+++............"};
